<svg width="372" height="48" viewBox="0 0 372 48" fill="none" xmlns="http://www.w3.org/2000/svg">
<rect width="163" height="48" rx="5" fill="#150C01"/>
<path d="M69.5234 27.3516H65.1172L64.1953 30H62.1406L66.4375 18.625H68.2109L72.5156 30H70.4531L69.5234 27.3516ZM65.6719 25.7578H68.9688L67.3203 21.0391L65.6719 25.7578ZM80.6562 25.8594C80.6562 27.1667 80.3594 28.2109 79.7656 28.9922C79.1719 29.7682 78.375 30.1562 77.375 30.1562C76.4479 30.1562 75.7057 29.8516 75.1484 29.2422V33.25H73.25V21.5469H75L75.0781 22.4062C75.6354 21.7292 76.3932 21.3906 77.3516 21.3906C78.3828 21.3906 79.1901 21.776 79.7734 22.5469C80.362 23.3125 80.6562 24.3776 80.6562 25.7422V25.8594ZM78.7656 25.6953C78.7656 24.8516 78.5964 24.1823 78.2578 23.6875C77.9245 23.1927 77.4453 22.9453 76.8203 22.9453C76.0443 22.9453 75.487 23.2656 75.1484 23.9062V27.6562C75.4922 28.3125 76.0547 28.6406 76.8359 28.6406C77.4401 28.6406 77.9115 28.3984 78.25 27.9141C78.5938 27.4245 78.7656 26.6849 78.7656 25.6953ZM89.6719 25.8594C89.6719 27.1667 89.375 28.2109 88.7812 28.9922C88.1875 29.7682 87.3906 30.1562 86.3906 30.1562C85.4635 30.1562 84.7214 29.8516 84.1641 29.2422V33.25H82.2656V21.5469H84.0156L84.0938 22.4062C84.651 21.7292 85.4089 21.3906 86.3672 21.3906C87.3984 21.3906 88.2057 21.776 88.7891 22.5469C89.3776 23.3125 89.6719 24.3776 89.6719 25.7422V25.8594ZM87.7812 25.6953C87.7812 24.8516 87.612 24.1823 87.2734 23.6875C86.9401 23.1927 86.4609 22.9453 85.8359 22.9453C85.0599 22.9453 84.5026 23.2656 84.1641 23.9062V27.6562C84.5078 28.3125 85.0703 28.6406 85.8516 28.6406C86.4557 28.6406 86.9271 28.3984 87.2656 27.9141C87.6094 27.4245 87.7812 26.6849 87.7812 25.6953ZM101.398 27.0703C101.398 26.5703 101.221 26.1849 100.867 25.9141C100.518 25.6432 99.8854 25.3698 98.9688 25.0938C98.0521 24.8177 97.3229 24.5104 96.7812 24.1719C95.7448 23.5208 95.2266 22.6719 95.2266 21.625C95.2266 20.7083 95.599 19.9531 96.3438 19.3594C97.0938 18.7656 98.0651 18.4688 99.2578 18.4688C100.049 18.4688 100.755 18.6146 101.375 18.9062C101.995 19.1979 102.482 19.6146 102.836 20.1562C103.19 20.6927 103.367 21.2891 103.367 21.9453H101.398C101.398 21.3516 101.211 20.888 100.836 20.5547C100.466 20.2161 99.9349 20.0469 99.2422 20.0469C98.5964 20.0469 98.0938 20.1849 97.7344 20.4609C97.3802 20.737 97.2031 21.1224 97.2031 21.6172C97.2031 22.0339 97.3958 22.3828 97.7812 22.6641C98.1667 22.9401 98.8021 23.2109 99.6875 23.4766C100.573 23.737 101.284 24.0365 101.82 24.375C102.357 24.7083 102.75 25.0938 103 25.5312C103.25 25.9635 103.375 26.4714 103.375 27.0547C103.375 28.0026 103.01 28.7578 102.281 29.3203C101.557 29.8776 100.573 30.1562 99.3281 30.1562C98.5052 30.1562 97.7474 30.0052 97.0547 29.7031C96.3672 29.3958 95.8307 28.974 95.4453 28.4375C95.0651 27.901 94.875 27.276 94.875 26.5625H96.8516C96.8516 27.2083 97.0651 27.7083 97.4922 28.0625C97.9193 28.4167 98.5312 28.5938 99.3281 28.5938C100.016 28.5938 100.531 28.4557 100.875 28.1797C101.224 27.8984 101.398 27.5286 101.398 27.0703ZM107.305 19.4922V21.5469H108.797V22.9531H107.305V27.6719C107.305 27.9948 107.367 28.2292 107.492 28.375C107.622 28.5156 107.852 28.5859 108.18 28.5859C108.398 28.5859 108.62 28.5599 108.844 28.5078V29.9766C108.411 30.0964 107.995 30.1562 107.594 30.1562C106.135 30.1562 105.406 29.3516 105.406 27.7422V22.9531H104.016V21.5469H105.406V19.4922H107.305ZM109.664 25.6953C109.664 24.8672 109.828 24.1224 110.156 23.4609C110.484 22.7943 110.945 22.2839 111.539 21.9297C112.133 21.5703 112.815 21.3906 113.586 21.3906C114.727 21.3906 115.651 21.7578 116.359 22.4922C117.073 23.2266 117.458 24.2005 117.516 25.4141L117.523 25.8594C117.523 26.6927 117.362 27.4375 117.039 28.0938C116.721 28.75 116.263 29.2578 115.664 29.6172C115.07 29.9766 114.383 30.1562 113.602 30.1562C112.409 30.1562 111.453 29.7604 110.734 28.9688C110.021 28.1719 109.664 27.112 109.664 25.7891V25.6953ZM111.562 25.8594C111.562 26.7292 111.742 27.4115 112.102 27.9062C112.461 28.3958 112.961 28.6406 113.602 28.6406C114.242 28.6406 114.74 28.3906 115.094 27.8906C115.453 27.3906 115.633 26.6589 115.633 25.6953C115.633 24.8411 115.448 24.1641 115.078 23.6641C114.714 23.1641 114.216 22.9141 113.586 22.9141C112.966 22.9141 112.474 23.1615 112.109 23.6562C111.745 24.1458 111.562 24.8802 111.562 25.8594ZM123.555 23.2812C123.305 23.2396 123.047 23.2188 122.781 23.2188C121.911 23.2188 121.326 23.5521 121.023 24.2188V30H119.125V21.5469H120.938L120.984 22.4922C121.443 21.7578 122.078 21.3906 122.891 21.3906C123.161 21.3906 123.385 21.4271 123.562 21.5L123.555 23.2812ZM128.32 30.1562C127.117 30.1562 126.141 29.7786 125.391 29.0234C124.646 28.263 124.273 27.2526 124.273 25.9922V25.7578C124.273 24.9141 124.435 24.1615 124.758 23.5C125.086 22.8333 125.544 22.3151 126.133 21.9453C126.721 21.5755 127.378 21.3906 128.102 21.3906C129.253 21.3906 130.141 21.7578 130.766 22.4922C131.396 23.2266 131.711 24.2656 131.711 25.6094V26.375H126.188C126.245 27.0729 126.477 27.625 126.883 28.0312C127.294 28.4375 127.81 28.6406 128.43 28.6406C129.299 28.6406 130.008 28.2891 130.555 27.5859L131.578 28.5625C131.24 29.0677 130.786 29.4609 130.219 29.7422C129.656 30.0182 129.023 30.1562 128.32 30.1562ZM128.094 22.9141C127.573 22.9141 127.151 23.0964 126.828 23.4609C126.51 23.8255 126.307 24.3333 126.219 24.9844H129.836V24.8438C129.794 24.2083 129.625 23.7292 129.328 23.4062C129.031 23.0781 128.62 22.9141 128.094 22.9141Z" fill="white"/>
<g clip-path="url(#clip0)">
<path d="M44.8717 15.1197C45.6998 14.1188 46.2818 12.7593 46.2526 11.3746C46.2477 11.1421 46.0356 10.9694 45.8056 11.0045C44.5906 11.1902 43.2324 11.9512 42.3916 12.9354C41.6168 13.8314 40.9291 15.2237 40.9808 16.6034C40.9885 16.8113 41.1642 16.977 41.3721 16.9711C42.7132 16.9331 44.0372 16.1301 44.8717 15.1197Z" fill="#D6D6D8"/>
<path d="M42.0271 16.6034C41.9469 14.4644 43.5607 11.9661 46.1801 11.1606C46.0979 11.0476 45.9558 10.9816 45.8057 11.0045C44.5906 11.1902 43.2324 11.9511 42.3916 12.9354C41.6168 13.8314 40.929 15.2237 40.9808 16.6034C40.9885 16.8113 41.1642 16.977 41.3721 16.9711C41.6322 16.9637 41.8915 16.9273 42.1468 16.8665C42.0765 16.7998 42.031 16.7068 42.0271 16.6034Z" fill="#C2C2C4"/>
<path d="M51.3442 29.9264C50.5023 29.5025 48.1789 28.0398 48.1501 24.7958C48.1256 22.1403 49.8877 20.5961 50.6373 20.057C50.8152 19.929 50.8543 19.6785 50.719 19.506C50.0962 18.712 49.3679 18.2027 48.6684 17.8726C48.6688 17.8725 48.6693 17.8724 48.6697 17.8724C48.5791 17.8296 48.424 17.7616 48.2998 17.7127C44.7796 16.3271 42.5612 18.451 41.2174 18.451C40.1885 18.451 38.6008 17.2885 36.9186 17.3202C34.7082 17.3523 32.6722 18.6061 31.5323 20.5845C29.7835 23.6199 30.3602 27.7694 31.7227 31.0032C31.7227 31.0033 31.7227 31.0033 31.7227 31.0033C31.7575 31.086 31.8131 31.2148 31.8594 31.3187C31.8595 31.3186 31.8595 31.3186 31.8595 31.3185C32.2542 32.2049 32.7061 33.015 33.1822 33.7035C34.2754 35.2836 35.5795 37.0636 37.293 36.9982C38.9422 36.9328 39.5657 35.9319 41.5588 35.9319C43.5506 35.9319 44.1124 36.9982 45.8562 36.9664C47.6314 36.9328 48.7555 35.354 49.8412 33.7664C50.7968 32.3715 51.3239 31.0099 51.5352 30.3969C51.5981 30.2142 51.5169 30.0133 51.3442 29.9264Z" fill="#D6D6D8"/>
<path d="M34.2285 33.7038C33.7524 33.0152 33.3005 32.2051 32.9058 31.3187C32.9058 31.3187 32.9058 31.3188 32.9057 31.3189C32.8594 31.215 32.8043 31.0874 32.769 31.0035C32.769 31.0035 32.769 31.0035 32.769 31.0034C31.4149 27.7896 30.8235 23.6309 32.5786 20.5847C33.6313 18.7576 35.4485 17.5494 37.4614 17.3499C37.2819 17.3283 37.1009 17.317 36.9186 17.3204C34.7082 17.3525 32.6722 18.6063 31.5323 20.5847C29.7835 23.6201 30.3602 27.7696 31.7227 31.0034C31.7227 31.0035 31.7227 31.0035 31.7227 31.0035C31.7575 31.0863 31.8131 31.215 31.8594 31.3189C31.8595 31.3188 31.8595 31.3188 31.8595 31.3187C32.2542 32.2051 32.7061 33.0152 33.1822 33.7038C34.2753 35.2838 35.5794 37.0638 37.2929 36.9984C37.4615 36.9917 37.619 36.9749 37.7687 36.9507C36.3312 36.6591 35.1969 35.1035 34.2285 33.7038Z" fill="#C2C2C4"/>
</g>
<rect opacity="0.1" x="193.75" y="0.75" width="177.5" height="46.5" rx="4.25" stroke="#150C01" stroke-width="1.5"/>
<path d="M265.875 28.5234C265.464 29.0599 264.893 29.4661 264.164 29.7422C263.435 30.0182 262.607 30.1562 261.68 30.1562C260.727 30.1562 259.883 29.9401 259.148 29.5078C258.414 29.0755 257.846 28.4583 257.445 27.6562C257.049 26.849 256.844 25.9089 256.828 24.8359V23.9453C256.828 22.2266 257.24 20.8854 258.062 19.9219C258.885 18.9531 260.034 18.4688 261.508 18.4688C262.773 18.4688 263.779 18.7812 264.523 19.4062C265.268 20.0312 265.716 20.9323 265.867 22.1094H263.93C263.711 20.7396 262.917 20.0547 261.547 20.0547C260.661 20.0547 259.987 20.375 259.523 21.0156C259.065 21.651 258.828 22.5859 258.812 23.8203V24.6953C258.812 25.9245 259.07 26.8802 259.586 27.5625C260.107 28.2396 260.828 28.5781 261.75 28.5781C262.76 28.5781 263.479 28.349 263.906 27.8906V25.6641H261.562V24.1641H265.875V28.5234ZM267.508 25.6953C267.508 24.8672 267.672 24.1224 268 23.4609C268.328 22.7943 268.789 22.2839 269.383 21.9297C269.977 21.5703 270.659 21.3906 271.43 21.3906C272.57 21.3906 273.495 21.7578 274.203 22.4922C274.917 23.2266 275.302 24.2005 275.359 25.4141L275.367 25.8594C275.367 26.6927 275.206 27.4375 274.883 28.0938C274.565 28.75 274.107 29.2578 273.508 29.6172C272.914 29.9766 272.227 30.1562 271.445 30.1562C270.253 30.1562 269.297 29.7604 268.578 28.9688C267.865 28.1719 267.508 27.112 267.508 25.7891V25.6953ZM269.406 25.8594C269.406 26.7292 269.586 27.4115 269.945 27.9062C270.305 28.3958 270.805 28.6406 271.445 28.6406C272.086 28.6406 272.583 28.3906 272.938 27.8906C273.297 27.3906 273.477 26.6589 273.477 25.6953C273.477 24.8411 273.292 24.1641 272.922 23.6641C272.557 23.1641 272.06 22.9141 271.43 22.9141C270.81 22.9141 270.318 23.1615 269.953 23.6562C269.589 24.1458 269.406 24.8802 269.406 25.8594ZM276.617 25.6953C276.617 24.8672 276.781 24.1224 277.109 23.4609C277.438 22.7943 277.898 22.2839 278.492 21.9297C279.086 21.5703 279.768 21.3906 280.539 21.3906C281.68 21.3906 282.604 21.7578 283.312 22.4922C284.026 23.2266 284.411 24.2005 284.469 25.4141L284.477 25.8594C284.477 26.6927 284.315 27.4375 283.992 28.0938C283.674 28.75 283.216 29.2578 282.617 29.6172C282.023 29.9766 281.336 30.1562 280.555 30.1562C279.362 30.1562 278.406 29.7604 277.688 28.9688C276.974 28.1719 276.617 27.112 276.617 25.7891V25.6953ZM278.516 25.8594C278.516 26.7292 278.695 27.4115 279.055 27.9062C279.414 28.3958 279.914 28.6406 280.555 28.6406C281.195 28.6406 281.693 28.3906 282.047 27.8906C282.406 27.3906 282.586 26.6589 282.586 25.6953C282.586 24.8411 282.401 24.1641 282.031 23.6641C281.667 23.1641 281.169 22.9141 280.539 22.9141C279.919 22.9141 279.427 23.1615 279.062 23.6562C278.698 24.1458 278.516 24.8802 278.516 25.8594ZM285.75 25.7109C285.75 24.3984 286.057 23.3516 286.672 22.5703C287.292 21.7839 288.112 21.3906 289.133 21.3906C290.096 21.3906 290.854 21.7266 291.406 22.3984L291.492 21.5469H293.203V29.7422C293.203 30.8516 292.857 31.7266 292.164 32.3672C291.477 33.0078 290.547 33.3281 289.375 33.3281C288.755 33.3281 288.148 33.1979 287.555 32.9375C286.966 32.6823 286.518 32.3464 286.211 31.9297L287.109 30.7891C287.693 31.4818 288.411 31.8281 289.266 31.8281C289.896 31.8281 290.393 31.6562 290.758 31.3125C291.122 30.974 291.305 30.474 291.305 29.8125V29.2422C290.758 29.8516 290.029 30.1562 289.117 30.1562C288.128 30.1562 287.318 29.763 286.688 28.9766C286.062 28.1901 285.75 27.1016 285.75 25.7109ZM287.641 25.875C287.641 26.724 287.812 27.3932 288.156 27.8828C288.505 28.3672 288.987 28.6094 289.602 28.6094C290.367 28.6094 290.935 28.2812 291.305 27.625V23.9062C290.945 23.2656 290.383 22.9453 289.617 22.9453C288.992 22.9453 288.505 23.1927 288.156 23.6875C287.812 24.1823 287.641 24.9115 287.641 25.875ZM297.18 30H295.281V18H297.18V30ZM302.977 30.1562C301.773 30.1562 300.797 29.7786 300.047 29.0234C299.302 28.263 298.93 27.2526 298.93 25.9922V25.7578C298.93 24.9141 299.091 24.1615 299.414 23.5C299.742 22.8333 300.201 22.3151 300.789 21.9453C301.378 21.5755 302.034 21.3906 302.758 21.3906C303.909 21.3906 304.797 21.7578 305.422 22.4922C306.052 23.2266 306.367 24.2656 306.367 25.6094V26.375H300.844C300.901 27.0729 301.133 27.625 301.539 28.0312C301.951 28.4375 302.466 28.6406 303.086 28.6406C303.956 28.6406 304.664 28.2891 305.211 27.5859L306.234 28.5625C305.896 29.0677 305.443 29.4609 304.875 29.7422C304.312 30.0182 303.68 30.1562 302.977 30.1562ZM302.75 22.9141C302.229 22.9141 301.807 23.0964 301.484 23.4609C301.167 23.8255 300.964 24.3333 300.875 24.9844H304.492V24.8438C304.451 24.2083 304.281 23.7292 303.984 23.4062C303.688 23.0781 303.276 22.9141 302.75 22.9141ZM313.992 25.7734V30H312.016V18.625H316.367C317.638 18.625 318.646 18.9557 319.391 19.6172C320.141 20.2786 320.516 21.1536 320.516 22.2422C320.516 23.3568 320.148 24.224 319.414 24.8438C318.685 25.4635 317.661 25.7734 316.344 25.7734H313.992ZM313.992 24.1875H316.367C317.07 24.1875 317.607 24.0234 317.977 23.6953C318.346 23.362 318.531 22.8828 318.531 22.2578C318.531 21.6432 318.344 21.1536 317.969 20.7891C317.594 20.4193 317.078 20.2292 316.422 20.2188H313.992V24.1875ZM324.086 30H322.188V18H324.086V30ZM331.211 30C331.128 29.8385 331.055 29.5755 330.992 29.2109C330.388 29.8411 329.648 30.1562 328.773 30.1562C327.924 30.1562 327.232 29.9141 326.695 29.4297C326.159 28.9453 325.891 28.3464 325.891 27.6328C325.891 26.7318 326.224 26.0417 326.891 25.5625C327.562 25.0781 328.521 24.8359 329.766 24.8359H330.93V24.2812C330.93 23.8438 330.807 23.4948 330.562 23.2344C330.318 22.9688 329.945 22.8359 329.445 22.8359C329.013 22.8359 328.659 22.9453 328.383 23.1641C328.107 23.3776 327.969 23.651 327.969 23.9844H326.07C326.07 23.5208 326.224 23.0885 326.531 22.6875C326.839 22.2812 327.255 21.9635 327.781 21.7344C328.312 21.5052 328.904 21.3906 329.555 21.3906C330.544 21.3906 331.333 21.6406 331.922 22.1406C332.51 22.6354 332.812 23.3333 332.828 24.2344V28.0469C332.828 28.8073 332.935 29.4141 333.148 29.8672V30H331.211ZM329.125 28.6328C329.5 28.6328 329.852 28.5417 330.18 28.3594C330.513 28.1771 330.763 27.9323 330.93 27.625V26.0312H329.906C329.203 26.0312 328.674 26.1536 328.32 26.3984C327.966 26.6432 327.789 26.9896 327.789 27.4375C327.789 27.8021 327.909 28.0938 328.148 28.3125C328.393 28.526 328.719 28.6328 329.125 28.6328ZM337.648 27.2812L339.367 21.5469H341.391L338.031 31.2812C337.516 32.7031 336.641 33.4141 335.406 33.4141C335.13 33.4141 334.826 33.3672 334.492 33.2734V31.8047L334.852 31.8281C335.331 31.8281 335.69 31.7396 335.93 31.5625C336.174 31.3906 336.367 31.099 336.508 30.6875L336.781 29.9609L333.812 21.5469H335.859L337.648 27.2812Z" fill="#150C01"/>
<g clip-path="url(#clip1)">
<path d="M240.425 24.0001L224.411 11.5775C223.798 12.057 223.385 12.8019 223.385 13.69V34.3102C223.385 35.1983 223.798 35.9432 224.411 36.4221L240.425 24.0001Z" fill="#9DC6FB"/>
<path d="M245.272 21.6738L241.397 19.4366L238.001 19.8612L236.834 23.9999L237.427 27.9622L241.397 28.5625L245.272 26.3259C247.063 25.292 247.063 22.7077 245.272 21.6738Z" fill="#FFE07D"/>
<path d="M241.397 19.4367L227.414 11.3638C226.392 10.7743 225.226 10.9412 224.412 11.5774L236.834 24L241.397 19.4367Z" fill="#DD5790"/>
<path d="M241.397 28.5627L236.834 24L224.412 36.422C225.226 37.0589 226.392 37.2258 227.414 36.6362L241.397 28.5627Z" fill="#95D6A4"/>
<path d="M226.413 13.69C226.413 13.5095 226.429 13.3353 226.462 13.1679L224.412 11.5775C223.799 12.0568 223.385 12.8017 223.385 13.69V34.3102C223.385 35.1979 223.799 35.9429 224.412 36.4221L226.462 34.8318C226.429 34.6644 226.413 34.4901 226.413 34.3102V13.69Z" fill="#80B4FB"/>
<path d="M227.592 11.466L227.414 11.3635C226.393 10.7744 225.226 10.9413 224.412 11.5774L226.415 13.5806C226.447 12.7404 226.851 12.0368 227.439 11.5774H227.439C227.489 11.5388 227.54 11.5011 227.592 11.466Z" fill="#DA387D"/>
<path d="M227.439 36.422L227.44 36.4209L227.438 36.422C226.85 35.9627 226.447 35.2585 226.415 34.4189L224.412 36.422C225.226 37.0586 226.393 37.2255 227.414 36.6359L227.592 36.5334C227.54 36.4984 227.489 36.4607 227.439 36.422Z" fill="#78C2A4"/>
</g>
<defs>
<clipPath id="clip0">
<rect width="26" height="26" fill="white" transform="translate(28 11)"/>
</clipPath>
<clipPath id="clip1">
<rect width="26" height="26" fill="white" transform="matrix(1 0 0 -1 222 37)"/>
</clipPath>
</defs>
</svg>
